<svg fill="none" height="24" viewBox="0 0 24 24" width="24" xmlns="http://www.w3.org/2000/svg"><g fill="#ffffff"><path d="m21.25 12.75c.42 0 .75-.34.75-.75 0-.42-.33-.75-.75-.75h-1.25v-2.2h1.25c.42 0 .75-.33.75-.75 0-.41-.33-.75-.75-.75h-1.48c-.48-1.59-1.73-2.84-3.32-3.32v-1.48c0-.41-.34-.75-.75-.75s-.75.34-.75.75v1.25h-2.2v-1.25c0-.41-.34-.75-.75-.75s-.75.34-.75.75v1.25h-2.19v-1.25c0-.41-.34-.75-.75-.75-.42 0-.75.34-.75.75v1.48c-1.6.48-2.85 1.73-3.33 3.32h-1.48c-.41 0-.75.34-.75.75 0 .42.34.75.75.75h1.25v2.2h-1.25c-.41 0-.75.33-.75.75 0 .41.34.75.75.75h1.25v2.2h-1.25c-.41 0-.75.33-.75.75 0 .41.34.75.75.75h1.48c.47 1.59 1.73 2.84 3.33 3.32v1.48c0 .41.33.75.75.75.41 0 .75-.34.75-.75v-1.25h2.2v1.25c0 .41.33.75.75.75.41 0 .75-.34.75-.75v-1.25h2.19v1.25c0 .41.34.75.75.75s.75-.34.75-.75v-1.48c1.59-.48 2.84-1.73 3.32-3.32h1.48c.42 0 .75-.34.75-.75 0-.42-.33-.75-.75-.75h-1.25v-2.2zm-3.99 1.51c0 1.65-1.35 3-3 3h-4.52c-1.65 0-3-1.35-3-3v-4.52c0-1.65 1.35-3 3-3h4.52c1.65 0 3 1.35 3 3z" fill="#ffffff"/><path d="m10.02 16.2483h3.97c1.25 0 2.27-1.01 2.27-2.27v-3.97c0-1.25002-1.01-2.27002-2.27-2.27002h-3.97c-1.25 0-2.27 1.01-2.27 2.27002v3.97c0 1.26 1.01 2.27 2.27 2.27z" fill="#ffffff"/></g></svg>